<svg width="240.99999999999997" height="226" xmlns="http://www.w3.org/2000/svg">
 <!-- Created with Method Draw - http://github.com/duopixel/Method-Draw/ -->

 <g>
  <title>background</title>
 </g>
 <g>
  <title>Layer 1</title>
  <line stroke-linecap="undefined" stroke-linejoin="undefined" id="svg_31" y2="68.833373" x2="187.333273" y1="63.500045" x1="187.333273" stroke-width="1.5" stroke="#6ac817" fill="none"/>
  <line stroke-linecap="undefined" stroke-linejoin="undefined" id="svg_30" y2="35.482633" x2="154.333303" y1="64.166711" x1="154.333303" stroke-width="1.5" stroke="#6ac817" fill="none"/>
  <line stroke-linecap="undefined" stroke-linejoin="undefined" id="svg_29" y2="46.831432" x2="121.666666" y1="75.166701" x1="121.666666" stroke-width="1.5" stroke="#6ac817" fill="none"/>
  <line stroke-linecap="undefined" stroke-linejoin="undefined" id="svg_28" y2="56.838285" x2="114.333339" y1="45.500061" x1="114.333339" stroke-width="1.5" stroke="#6ac817" fill="none"/>
  <line stroke-linecap="undefined" stroke-linejoin="undefined" id="svg_27" y2="80.830947" x2="96.333355" y1="103.833342" x1="96.333355" stroke-width="1.5" stroke="#6ac817" fill="none"/>
  <line stroke="#6ac817" stroke-linecap="undefined" stroke-linejoin="undefined" id="svg_26" y2="93.849215" x2="89.333361" y1="76.500033" x1="89.333361" stroke-width="1.5" fill="none"/>
  <line stroke-linecap="undefined" stroke-linejoin="undefined" id="svg_25" y2="113.163334" x2="79.000037" y1="129.833318" x1="79.000037" stroke-width="1.5" stroke="#6ac817" fill="none"/>
  <line stroke-linecap="undefined" stroke-linejoin="undefined" id="svg_24" y2="110.122573" x2="80.333369" y1="155.499962" x1="80.333369" stroke-width="1.5" stroke="#6ac817" fill="none"/>
  <line stroke="#6ac817" stroke-linecap="undefined" stroke-linejoin="undefined" id="svg_23" y2="156.545106" x2="58.000056" y1="132.499982" x1="58.000056" stroke-width="1.5" fill="none"/>
  <line stroke-linecap="undefined" stroke-linejoin="undefined" id="svg_22" y2="159.499958" x2="56.666724" y1="169.499949" x1="56.666724" stroke-width="1.5" stroke="#6ac817" fill="none"/>
  <line stroke-linecap="undefined" stroke-linejoin="undefined" id="svg_6" y2="165.163415" x2="54.333393" y1="182.499937" x1="54.333393" stroke-width="1.5" stroke="#6ac817" fill="none"/>
  <line stroke-linecap="undefined" stroke-linejoin="undefined" id="svg_3" y2="189.835429" x2="42.666737" y1="164.166621" x1="42.666737" stroke-width="1.5" stroke="#6ac817" fill="none"/>
  <line stroke-linecap="undefined" stroke-linejoin="undefined" id="svg_2" y2="205.432829" x2="35.749995" y1="188.24999" x1="35.749995" stroke-width="1.5" stroke="#6ac817" fill="none"/>
  <line fill="none" stroke-width="3.5" x1="16.999983" y1="14.499984" x2="16.999983" y2="209.516466" id="svg_4" stroke-linejoin="undefined" stroke-linecap="undefined" stroke="#e8b165"/>
  <line fill="none" stroke-width="3.5" fill-opacity="null" x1="16.999983" y1="207.666649" x2="223.009692" y2="207.666649" id="svg_5" stroke-linejoin="undefined" stroke-linecap="undefined" stroke="#e8b165"/>
  <ellipse fill="#e8b165" stroke="#e8b165" stroke-width="1.5" cx="187.214478" cy="63.402756" id="svg_7" rx="2" ry="2"/>
  <ellipse fill="#e8b165" stroke="#e8b165" stroke-width="1.5" cx="114.537689" cy="44.662871" id="svg_8" rx="2" ry="2"/>
  <ellipse fill="#e8b165" stroke="#e8b165" stroke-width="1.5" cx="80.36186" cy="157.324178" id="svg_9" rx="2" ry="2"/>
  <ellipse fill="#e8b165" stroke="#e8b165" stroke-width="1.5" cx="54.286427" cy="184.660799" id="svg_10" rx="2" ry="2"/>
  <ellipse fill="#e8b165" stroke="#e8b165" stroke-width="1.5" cx="96.241464" cy="104.367762" id="svg_11" rx="2" ry="2"/>
  <ellipse fill="#e8b165" stroke="#e8b165" stroke-width="1.5" cx="79.682665" cy="132.483527" id="svg_12" rx="2" ry="2"/>
  <ellipse fill="#e8b165" stroke="#e8b165" stroke-width="1.5" cx="154.418827" cy="64.683956" id="svg_13" rx="2" ry="2"/>
  <ellipse fill="#e8b165" stroke="#e8b165" stroke-width="1.5" cx="158.443677" cy="39.238939" id="svg_14" rx="2" ry="2"/>
  <ellipse fill="#e8b165" stroke="#e8b165" stroke-width="1.5" cx="82.116604" cy="112.669352" id="svg_15" rx="2" ry="2"/>
  <ellipse fill="#e8b165" stroke="#e8b165" stroke-width="1.5" cx="35.735584" cy="184.821572" id="svg_16" rx="2" ry="2"/>
  <ellipse fill="#e8b165" stroke="#e8b165" stroke-width="1.5" cx="56.494999" cy="171.41323" id="svg_17" rx="2" ry="2"/>
  <ellipse fill="#e8b165" stroke="#e8b165" stroke-width="1.5" cx="42.803675" cy="161.49067" id="svg_18" rx="2" ry="2"/>
  <ellipse fill="#e8b165" stroke="#e8b165" stroke-width="1.5" cx="58.131878" cy="130.148106" id="svg_19" rx="2" ry="2"/>
  <ellipse fill="#e8b165" stroke="#e8b165" stroke-width="1.5" cx="121.849106" cy="75.18873" id="svg_20" rx="2" ry="2"/>
  <ellipse fill="#e8b165" stroke="#e8b165" stroke-width="1.5" cx="89.581829" cy="77.147165" id="svg_21" rx="2" ry="2"/>
  <path fill="none" stroke="#ff0000" stroke-width="2.5" stroke-opacity="null" fill-opacity="null" opacity="0.5" d="m36.74995,171.33337" id="svg_43"/>
  <path fill="none" stroke="#ff0000" stroke-width="2.5" stroke-opacity="null" fill-opacity="null" d="m37.58328,204.66672c25.8056,-61.55557 71.6112,-168.11117 107.41681,-169.6667c28.61112,-1.11111 46.38891,40.2778 55.83336,66.66671" id="svg_45"/>
 </g>
 <g>
  <title>background</title>
  <rect fill="none" id="canvas_background" height="402" width="582" y="-1" x="-1"/>
 </g>
</svg>
