<svg width="241" height="226" xmlns="http://www.w3.org/2000/svg">
 <!-- Created with Method Draw - http://github.com/duopixel/Method-Draw/ -->
 <g>
  <title>background</title>
  <g display="none" overflow="visible" y="0" x="0" height="100%" width="100%" id="canvasGrid">
   <rect fill="url(#gridpattern)" stroke-width="0" y="0" x="0" height="100%" width="100%"/>
  </g>
 </g>
 <g>
  <title>Layer 1</title>
  <line stroke="#e8b165" stroke-linecap="undefined" stroke-linejoin="undefined" id="svg_4" y2="209.516466" x2="16.999983" y1="14.499984" x1="16.999983" stroke-width="3.5" fill="none"/>
  <line stroke="#e8b165" stroke-linecap="undefined" stroke-linejoin="undefined" id="svg_5" y2="207.666649" x2="223.009692" y1="207.666649" x1="16.999983" fill-opacity="null" stroke-width="3.5" fill="none"/>
  <ellipse ry="2" rx="2" id="svg_7" cy="63.402756" cx="187.214478" stroke-width="1.5" stroke="#e8b165" fill="#e8b165"/>
  <ellipse ry="2" rx="2" id="svg_8" cy="44.662871" cx="114.537689" stroke-width="1.5" stroke="#e8b165" fill="#e8b165"/>
  <ellipse ry="2" rx="2" id="svg_9" cy="157.324178" cx="80.36186" stroke-width="1.5" stroke="#e8b165" fill="#e8b165"/>
  <ellipse ry="2" rx="2" id="svg_10" cy="184.660799" cx="54.286427" stroke-width="1.5" stroke="#e8b165" fill="#e8b165"/>
  <ellipse ry="2" rx="2" id="svg_11" cy="104.367762" cx="96.241464" stroke-width="1.5" stroke="#e8b165" fill="#e8b165"/>
  <ellipse ry="2" rx="2" id="svg_12" cy="132.483527" cx="79.682665" stroke-width="1.5" stroke="#e8b165" fill="#e8b165"/>
  <ellipse ry="2" rx="2" id="svg_13" cy="64.683956" cx="154.418827" stroke-width="1.5" stroke="#e8b165" fill="#e8b165"/>
  <ellipse ry="2" rx="2" id="svg_14" cy="39.238939" cx="158.443677" stroke-width="1.5" stroke="#e8b165" fill="#e8b165"/>
  <ellipse ry="2" rx="2" id="svg_15" cy="112.669352" cx="82.116604" stroke-width="1.5" stroke="#e8b165" fill="#e8b165"/>
  <ellipse ry="2" rx="2" id="svg_16" cy="184.821572" cx="35.735584" stroke-width="1.5" stroke="#e8b165" fill="#e8b165"/>
  <ellipse ry="2" rx="2" id="svg_17" cy="171.41323" cx="56.494999" stroke-width="1.5" stroke="#e8b165" fill="#e8b165"/>
  <ellipse ry="2" rx="2" id="svg_18" cy="161.49067" cx="42.803675" stroke-width="1.5" stroke="#e8b165" fill="#e8b165"/>
  <ellipse ry="2" rx="2" id="svg_19" cy="130.148106" cx="58.131878" stroke-width="1.5" stroke="#e8b165" fill="#e8b165"/>
  <ellipse ry="2" rx="2" id="svg_20" cy="75.18873" cx="121.849106" stroke-width="1.5" stroke="#e8b165" fill="#e8b165"/>
  <ellipse ry="2" rx="2" id="svg_21" cy="77.147165" cx="89.581829" stroke-width="1.5" stroke="#e8b165" fill="#e8b165"/>
  <path id="svg_42" d="m19.249936,204.666724c23.305595,-21.833325 10.777834,-34.499978 22.416755,-45.499963c9.722228,-3.611114 3.611113,17.777788 11.666674,26.666682c8.055561,-15.277787 2.77778,-37.222244 6.666671,-55.833366c3.055557,-11.944452 11.111117,19.444456 16.666676,29.166684c7.222227,6.94445 4.444447,-79.444493 14.166675,-84.166717c4.444447,6.666671 2.222224,29.166684 5.833337,30.000018c2.777779,3.888892 11.388895,-75.555602 18.333344,-63.333371c4.166669,3.333335 2.500001,36.666689 7.500004,32.50002c5.555559,4.722226 25.277793,-53.055588 34.166687,-35.833355c9.722228,8.888894 21.944458,36.111133 29.166684,26.666682" fill-opacity="null" stroke-width="2.5" stroke="#ff0000" fill="none"/>
  <path id="svg_43" d="m36.749947,171.33337" opacity="0.5" fill-opacity="null" stroke-opacity="null" stroke-width="2.5" stroke="#ff0000" fill="none"/>
 </g>
</svg>
